PathFileType	4	(X/Y/Z)	/Users/itak/Documents/Research/Walk-IL/dataset/trc/00373_00011.trc
DataRate	CameraRate	NumFrames	NumMarkers	Units	OrigDataRate	OrigDataStartFrame	OrigNumFrames
100.000000	100.000000	4	54	mm	100.000000	0	548
Frame#	Time	RPSI			LPSI			L3			STRN			T10			C7			CLAV			RBAK			LBAK			LSHO			LUPA			LAEL			LAOL			LWTS			LWPS			LFRA			LHPS			LHTS			RSHO			RUPA			RAEL			RAOL			RWTS			RWPS			RFRA			RIFD			RHTS			RHPS			RBHD			LFHD			RFHD			LBHD			LHIP			RHIP			RASI			LASI			LKNE			LTHI			LANK			LTIP			LTOE			LMT1			LMT5			LHEE			RKNE			RTHI			RANK			RTIP			RTOE			RMT1			RMT5			RHEE			LIFD			*53			
		X1	Y1	Z1	X2	Y2	Z2	X3	Y3	Z3	X4	Y4	Z4	X5	Y5	Z5	X6	Y6	Z6	X7	Y7	Z7	X8	Y8	Z8	X9	Y9	Z9	X10	Y10	Z10	X11	Y11	Z11	X12	Y12	Z12	X13	Y13	Z13	X14	Y14	Z14	X15	Y15	Z15	X16	Y16	Z16	X17	Y17	Z17	X18	Y18	Z18	X19	Y19	Z19	X20	Y20	Z20	X21	Y21	Z21	X22	Y22	Z22	X23	Y23	Z23	X24	Y24	Z24	X25	Y25	Z25	X26	Y26	Z26	X27	Y27	Z27	X28	Y28	Z28	X29	Y29	Z29	X30	Y30	Z30	X31	Y31	Z31	X32	Y32	Z32	X33	Y33	Z33	X34	Y34	Z34	X35	Y35	Z35	X36	Y36	Z36	X37	Y37	Z37	X38	Y38	Z38	X39	Y39	Z39	X40	Y40	Z40	X41	Y41	Z41	X42	Y42	Z42	X43	Y43	Z43	X44	Y44	Z44	X45	Y45	Z45	X46	Y46	Z46	X47	Y47	Z47	X48	Y48	Z48	X49	Y49	Z49	X50	Y50	Z50	X51	Y51	Z51	X52	Y52	Z52	X53	Y53	Z53	X54	Y54	Z54	

1	0	-1235.516357421875	984.4122924804688	-12.74115371704102	-1236.668090820312	984.2967529296875	-141.9281158447266	-1234.448120117188	1035.073852539062	-74.81468963623047	-1016.847229003906	1230.344970703125	-86.78342437744141	-1249.5126953125	1149.759521484375	-91.42659759521484	-1224.021118164062	1400.751708984375	-111.2683258056641	-1064.599365234375	1355.06884765625	-94.85345458984375	-1264.9736328125	1259.59765625	-43.57676315307617	-1229.085815429688	1361.133544921875	-212.3202819824219	-1141.303833007812	1382.242431640625	-264.1087036132812	-1151.918334960938	1259.4931640625	-327.9750671386719	-1129.02587890625	1056.809692382812	-335.8479309082031	-1193.159790039062	1041.682861328125	-282.4137573242188	-1017.448974609375	825.7599487304688	-281.997802734375	-1054.4287109375	808.5608520507812	-339.2143859863281	-1107.82568359375	953.1796875	-340.5579833984375	-1051.074462890625	738.2781982421875	-329.6623840332031	-997.3004760742188	750.0667724609375	-292.5874328613281	-1178.10888671875	1396.25390625	55.64762496948242	-1188.70166015625	1331.406005859375	119.2827911376953	-1158.482788085938	1065.955078125	161.7620544433594	-1194.096435546875	1054.09912109375	73.91062164306641	-1027.37841796875	847.6619873046875	120.5869293212891	-1061.031494140625	831.6572875976562	187.6475372314453	-1127.670043945312	1001.397094726562	172.3086242675781	-997.164794921875	676.7037353515625	131.8899383544922	-991.9034423828125	748.5682373046875	137.5004119873047	-1039.613037109375	748.83935546875	186.7486419677734	-1195.298828125	1614.112670898438	-31.14357948303223	-1012.885803222656	1628.043090820312	-131.9927825927734	-1032.970092773438	1628.995239257812	-32.67519378662109	-1193.773193359375	1607.821533203125	-175.3585052490234	-1152.119873046875	923.76953125	-245.6222381591797	-1156.880859375	930.220458984375	97.65335845947266	-1050.682495117188	955.7604370117188	52.44368362426758	-1030.240112304688	949.9236450195312	-186.2654876708984	-1137.405029296875	467.9789733886719	-234.9621124267578	-1124.790283203125	606.0245971679688	-243.5524291992188	-1220.774780273438	48.00625991821289	-227.6965789794922	-1181.947631835938	253.201171875	-243.8249969482422	-1015.673400878906	45.86725616455078	-163.1828308105469	-1084.310546875	37.43438339233398	-123.0849990844727	-1094.424072265625	42.49560165405273	-237.9166412353516	-1254.656494140625	44.30329895019531	-160.2367706298828	-1152.237915039062	462.6536254882812	77.13694763183594	-1096.942749023438	718.5668334960938	99.82424163818359	-1216.505859375	54.22629547119141	58.09470367431641	-1151.792236328125	345.7252502441406	68.58477020263672	-1027.990112304688	46.44283676147461	-6.855159759521484	-1087.222045898438	40.86949920654297	-43.46363830566406	-1114.5888671875	40.99045944213867	71.2080078125	-1270.347900390625	54.60292816162109	14.58037948608398	-998.510009765625	663.79736328125	-270.6598815917969	nan	nan	nan	
2	0.01	-1235.481689453125	984.4244995117188	-12.72648620605469	-1236.660278320312	984.3117065429688	-141.9233703613281	-1234.419799804688	1035.088623046875	-74.81889343261719	-1016.777099609375	1230.3330078125	-86.81452941894531	-1249.442993164062	1149.760864257812	-91.43775177001953	-1223.99462890625	1400.7509765625	-111.319221496582	-1064.569091796875	1355.05126953125	-94.87783813476562	-1264.898559570312	1259.601928710938	-43.60067749023438	-1229.028198242188	1361.115600585938	-212.3600158691406	-1141.248413085938	1382.234619140625	-264.1407470703125	-1151.754272460938	1259.478515625	-328.0229187011719	-1128.708740234375	1056.825927734375	-335.950439453125	-1192.863525390625	1041.637817382812	-282.5810241699219	-1016.971008300781	825.912353515625	-282.1722106933594	-1054.076171875	808.6100463867188	-339.3665466308594	-1107.477416992188	953.1973266601562	-340.6904296875	-1050.635864257812	738.2927856445312	-329.8539123535156	-996.8579711914062	750.165283203125	-292.7136535644531	-1178.05712890625	1396.27685546875	55.60713577270508	-1188.681030273438	1331.443725585938	119.2641830444336	-1158.405151367188	1065.969604492188	161.7625885009766	-1194.023681640625	1054.107788085938	73.91410064697266	-1027.212524414062	847.722412109375	120.4736251831055	-1060.820556640625	831.7120971679688	187.5097045898438	-1127.515380859375	1001.410095214844	172.2859802246094	-996.8347778320312	676.9074096679688	131.7033843994141	-991.478515625	748.737060546875	137.2932281494141	-1039.389404296875	748.9114379882812	186.6823883056641	-1195.293334960938	1614.103759765625	-31.1953067779541	-1012.779052734375	1628.107666015625	-132.0438842773438	-1032.962158203125	1629.002807617188	-32.67974090576172	-1193.67724609375	1607.78662109375	-175.427734375	-1152.115600585938	923.7687377929688	-245.6196594238281	-1156.839233398438	930.2199096679688	97.63867950439453	-1050.647705078125	955.7578125	52.43893432617188	-1030.237182617188	949.9159545898438	-186.3015441894531	-1137.407592773438	467.9600524902344	-234.9640655517578	-1124.802490234375	606.0167236328125	-243.5637359619141	-1220.764770507812	48.0073127746582	-227.6923522949219	-1181.942504882812	253.1961975097656	-243.8244323730469	-1015.672790527344	45.86801528930664	-163.1825561523438	-1084.318237304688	37.41989517211914	-123.0793685913086	-1094.417724609375	42.49637985229492	-237.9119262695312	-1254.656494140625	44.29770278930664	-160.2385864257812	-1152.2607421875	462.6581420898438	77.14040374755859	-1096.985229492188	718.5335083007812	99.884033203125	-1216.521850585938	54.23472213745117	58.09889984130859	-1151.809204101562	345.7395324707031	68.59520721435547	-1028.003295898438	46.45144271850586	-6.853640556335449	-1087.249145507812	40.89341735839844	-43.47225570678711	-1114.487915039062	40.95124053955078	71.25294494628906	-1270.352661132812	54.59647750854492	14.58498573303223	-998.294677734375	663.8017578125	-270.7818298339844	nan	nan	nan	
3	0.02	-1235.43505859375	984.4383544921875	-12.70732021331787	-1236.650390625	984.326904296875	-141.9149932861328	-1234.385864257812	1035.1044921875	-74.82163238525391	-1016.695251464844	1230.313842773438	-86.85456848144531	-1249.359985351562	1149.762573242188	-91.44849395751953	-1223.957153320312	1400.74951171875	-111.3801651000977	-1064.530395507812	1355.029663085938	-94.90924835205078	-1264.796142578125	1259.608154296875	-43.62504959106445	-1228.957397460938	1361.09423828125	-212.4079895019531	-1141.181518554688	1382.224609375	-264.1800231933594	-1151.55859375	1259.458862304688	-328.0840148925781	-1128.316284179688	1056.846313476562	-336.0823364257812	-1192.510375976562	1041.579223632812	-282.7941589355469	-1016.3642578125	826.115478515625	-282.4498596191406	-1053.653076171875	808.6649169921875	-339.5767822265625	-1107.049438476562	953.217529296875	-340.8642272949219	-1050.1357421875	738.3101806640625	-330.1194458007812	-996.3245239257812	750.2747192382812	-292.8843994140625	-1177.986450195312	1396.3037109375	55.55648803710938	-1188.649780273438	1331.487426757812	119.2428665161133	-1158.30908203125	1065.988647460938	161.7640228271484	-1193.938232421875	1054.119995117188	73.92017364501953	-1027.006225585938	847.8042602539062	120.3219604492188	-1060.57373046875	831.7666015625	187.3552093505859	-1127.336303710938	1001.427185058594	172.2614898681641	-996.4613037109375	677.1422119140625	131.4731597900391	-990.9553833007812	748.952392578125	137.0347137451172	-1039.103393554688	748.992919921875	186.5842742919922	-1195.285034179688	1614.093139648438	-31.25865364074707	-1012.652526855469	1628.183471679688	-132.1056518554688	-1032.948364257812	1629.013427734375	-32.68610763549805	-1193.5537109375	1607.743896484375	-175.51806640625	-1152.109985351562	923.766845703125	-245.6156463623047	-1156.779296875	930.21826171875	97.62084197998047	-1050.60791015625	955.7510375976562	52.43215560913086	-1030.238525390625	949.9055786132812	-186.3509063720703	-1137.407104492188	467.93798828125	-234.9691009521484	-1124.815063476562	606.0076904296875	-243.5790100097656	-1220.7578125	48.00983428955078	-227.6900939941406	-1181.934936523438	253.1886291503906	-243.8247833251953	-1015.672119140625	45.86928939819336	-163.1811676025391	-1084.327270507812	37.4055061340332	-123.0735397338867	-1094.411376953125	42.49820709228516	-237.9062347412109	-1254.656127929688	44.29129409790039	-160.2391204833984	-1152.286743164062	462.66357421875	77.1424560546875	-1097.011962890625	718.4990234375	99.93213653564453	-1216.539184570312	54.241455078125	58.10532760620117	-1151.828491210938	345.7543640136719	68.60488128662109	-1028.017700195312	46.46248245239258	-6.852902889251709	-1087.274780273438	40.91574096679688	-43.47865295410156	-1114.390747070312	40.91067886352539	71.29408264160156	-1270.35986328125	54.58856582641602	14.59140968322754	-998.0799560546875	663.7406616210938	-270.9586486816406	nan	nan	nan	
4	0.03	-1235.376831054688	984.4522094726562	-12.68362617492676	-1236.638793945312	984.3404541015625	-141.9022064208984	-1234.348022460938	1035.119750976562	-74.82175445556641	-1016.608459472656	1230.287231445312	-86.90283966064453	-1249.268432617188	1149.7646484375	-91.45677185058594	-1223.907836914062	1400.747436523438	-111.4472503662109	-1064.484252929688	1355.005249023438	-94.94680786132812	-1264.667724609375	1259.61669921875	-43.64653778076172	-1228.877197265625	1361.07080078125	-212.461181640625	-1141.106811523438	1382.212646484375	-264.2243957519531	-1151.345336914062	1259.434692382812	-328.1564025878906	-1127.86669921875	1056.869750976562	-336.23876953125	-1192.116088867188	1041.509155273438	-283.0419616699219	-1015.696838378906	826.3186645507812	-282.8151245117188	-1053.188720703125	808.7203979492188	-339.8467712402344	-1106.565673828125	953.2388305664062	-341.0755615234375	-1049.61865234375	738.3287353515625	-330.4612426757812	-995.7412109375	750.3756713867188	-293.1042785644531	-1177.897094726562	1396.33203125	55.49774932861328	-1188.606689453125	1331.5341796875	119.2198486328125	-1158.200439453125	1066.010620117188	161.76513671875	-1193.846801757812	1054.135498046875	73.92848205566406	-1026.771484375	847.9086303710938	120.1369781494141	-1060.310180664062	831.8135986328125	187.1985168457031	-1127.14794921875	1001.44775390625	172.2380828857422	-996.0723266601562	677.389892578125	131.2121734619141	-990.3710327148438	749.1987915039062	136.7410125732422	-1038.765380859375	749.0782470703125	186.4509429931641	-1195.27294921875	1614.080810546875	-31.33049774169922	-1012.517150878906	1628.263061523438	-132.1731414794922	-1032.926513671875	1629.027099609375	-32.6953010559082	-1193.40869140625	1607.696533203125	-175.6260528564453	-1152.103271484375	923.7634887695312	-245.6099853515625	-1156.7001953125	930.2150268554688	97.60063171386719	-1050.56494140625	955.7401733398438	52.42325592041016	-1030.24560546875	949.892578125	-186.4130554199219	-1137.401977539062	467.913818359375	-234.9780426025391	-1124.825073242188	605.9977416992188	-243.5977783203125	-1220.754638671875	48.01351165771484	-227.6901092529297	-1181.924072265625	253.1781768798828	-243.8263549804688	-1015.671630859375	45.87107467651367	-163.1790466308594	-1084.3369140625	37.39254379272461	-123.0679550170898	-1094.404907226562	42.50109481811523	-237.8994140625	-1254.655395507812	44.28491592407227	-160.2382659912109	-1152.313232421875	462.6692504882812	77.14177703857422	-1097.016235351562	718.4647827148438	99.96211242675781	-1216.55419921875	54.24435424804688	58.11455535888672	-1151.8486328125	345.7681579589844	68.61240386962891	-1028.0322265625	46.47565460205078	-6.85287618637085	-1087.295043945312	40.93355941772461	-43.48189926147461	-1114.31689453125	40.87477111816406	71.32320404052734	-1270.369873046875	54.57992553710938	14.59938716888428	-997.889404296875	663.5977783203125	-271.1997680664062	nan	nan	nan	
